<?xml version="1.0" encoding="utf-8"?>
<!-- Generator: Adobe Illustrator 22.0.1, SVG Export Plug-In . SVG Version: 6.00 Build 0)  -->
<svg version="1.1" id="Capa_1" xmlns="http://www.w3.org/2000/svg" xmlns:xlink="http://www.w3.org/1999/xlink" x="0px" y="0px"
	 viewBox="0 0 1484 397.3" style="enable-background:new 0 0 1484 397.3;" xml:space="preserve">
<style type="text/css">
	.st0{fill:#FFFFFF;}
</style>
<g>
	<path class="st0" d="M541.1,288.7c-16.4-9.1-27.6-20.9-33.8-35.5c-1-2.5-1.5-4.5-1.5-6.2c0-3.1,1.1-5.8,3.4-8.2s5.4-4,9.3-4.8
		c0.6-0.2,1.6-0.3,3.1-0.3c3.3,0,6.4,1,9.4,2.9c3,2,5.2,4.6,6.6,7.9c3.7,8,11,14.8,21.9,20.4s23,8.3,36.1,8.3
		c15.4,0,28.5-3.6,39.2-10.7s16.1-16.8,16.1-29.2c0-11.7-4.5-21.8-13.6-30.1s-22.9-13.4-41.4-15.3c-25.5-2.5-45.6-9.9-60.2-22.4
		c-14.6-12.5-21.9-28.1-21.9-46.8c0-13.2,3.8-24.6,11.3-34.1c7.5-9.6,17.8-16.9,30.9-21.9c13.1-5,27.7-7.6,44-7.6
		c17.7,0,32.6,3.6,44.8,10.8c12.1,7.2,22.4,17.5,30.9,30.9c2.5,3.9,3.7,7.6,3.7,11.1c0,4.5-2.1,8.2-6.2,11.1c-2.3,1.4-4.9,2.2-8,2.2
		s-6-0.8-8.6-2.3c-2.7-1.5-4.7-3.7-6.2-6.3c-5.6-9.3-12.5-16.3-20.8-21.2c-8.3-4.8-18.9-7.3-31.7-7.3c-15.7,0-28.3,3-38,9.1
		s-14.5,14.9-14.5,26.4c0,10.7,4.3,19.7,13,26.9c8.6,7.2,24.1,11.9,46.3,14.2c24.7,2.5,43.9,9.9,57.5,22.4s20.4,28.9,20.4,49.3
		c0,14.8-4,27.5-12,38.1c-8,10.6-18.7,18.5-32,23.8s-27.5,7.9-42.8,7.9C575.7,302.3,557.5,297.7,541.1,288.7z"/>
	<path class="st0" d="M848.1,140.3c12.9,7.5,23.1,17.8,30.6,30.9c7.5,13.1,11.3,27.6,11.3,43.7v140.8c0,4.7-1.4,8.5-4.3,11.4
		c-2.9,2.9-6.7,4.3-11.4,4.3c-4.5,0-8.3-1.4-11.3-4.3s-4.5-6.7-4.5-11.4v-83.4c-7.2,8.9-16,15.8-26.3,20.7
		c-10.3,4.9-21.4,7.4-33.4,7.4c-14.8,0-28.3-3.7-40.3-11.1s-21.5-17.7-28.4-30.7c-6.9-13.1-10.3-27.6-10.3-43.7s3.7-30.6,11.1-43.7
		c7.4-13.1,17.7-23.4,30.7-30.9c13.1-7.5,27.5-11.3,43.4-11.3C820.9,129,835.3,132.8,848.1,140.3z M833,265.1
		c8.3-5,14.9-11.9,19.6-20.7c4.7-8.8,7.1-18.6,7.1-29.5s-2.4-20.8-7.1-29.7c-4.7-8.9-11.3-15.8-19.6-20.8s-17.7-7.6-28-7.6
		s-19.6,2.5-28,7.6c-8.3,5-14.9,12-19.8,20.8c-4.8,8.9-7.3,18.7-7.3,29.7c0,10.9,2.4,20.7,7.3,29.5c4.8,8.8,11.4,15.7,19.8,20.7
		c8.3,5,17.7,7.6,28,7.6C815.3,272.6,824.7,270.1,833,265.1z"/>
	<path class="st0" d="M1096.3,134.2c2.9,2.9,4.3,6.7,4.3,11.4v137.8c0,4.5-1.4,8.3-4.3,11.3s-6.7,4.5-11.4,4.5
		c-4.5,0-8.3-1.5-11.3-4.5s-4.5-6.7-4.5-11.3V280c-6.6,6.6-14.4,11.7-23.5,15.3c-9.1,3.6-18.7,5.4-29,5.4c-14.2,0-27-3.1-38.3-9.3
		c-11.3-6.2-20.2-15.2-26.6-27c-6.4-11.8-9.6-26.1-9.6-42.8v-76c0-4.5,1.5-8.3,4.5-11.3s6.7-4.5,11.3-4.5c4.5,0,8.3,1.5,11.3,4.5
		s4.5,6.7,4.5,11.3v76c0,16.7,4.5,29.3,13.4,37.8c9,8.5,20.8,12.8,35.7,12.8c8.6,0,16.5-1.7,23.6-5.3c7.1-3.5,12.7-8.2,16.7-14.2
		c4-6,6-12.7,6-20.1v-87.1c0-4.7,1.5-8.5,4.5-11.4s6.7-4.3,11.3-4.3C1089.6,129.9,1093.4,131.4,1096.3,134.2z"/>
	<path class="st0" d="M1275.9,140.3c12.9,7.5,23.1,17.8,30.6,30.9c7.5,13.1,11.3,27.6,11.3,43.7v68.9c0,4.5-1.5,8.3-4.5,11.3
		s-6.7,4.5-11.3,4.5c-4.5,0-8.3-1.5-11.3-4.5s-4.5-6.7-4.5-11.3v-11.4c-7.2,8.9-16,15.8-26.3,20.7c-10.3,4.9-21.4,7.4-33.4,7.4
		c-14.8,0-28.3-3.7-40.3-11.1s-21.5-17.7-28.4-30.7c-6.9-13.1-10.3-27.6-10.3-43.7s3.7-30.6,11.1-43.7c7.4-13.1,17.7-23.4,30.7-30.9
		c13.1-7.5,27.5-11.3,43.4-11.3C1248.7,129,1263.1,132.8,1275.9,140.3z M1260.8,265.1c8.3-5,14.9-11.9,19.6-20.7s7.1-18.6,7.1-29.5
		s-2.4-20.8-7.1-29.7s-11.3-15.8-19.6-20.8c-8.3-5-17.7-7.6-28-7.6s-19.6,2.5-28,7.6c-8.3,5-14.9,12-19.8,20.8
		c-4.8,8.9-7.3,18.7-7.3,29.7c0,10.9,2.4,20.7,7.3,29.5c4.8,8.8,11.4,15.7,19.8,20.7c8.3,5,17.7,7.6,28,7.6
		C1243.1,272.6,1252.5,270.1,1260.8,265.1z"/>
	<path class="st0" d="M1473.1,133.3c6.2,3.3,9.3,7.4,9.3,12.4c0,1.4-0.1,2.5-0.3,3.1c-1.9,6.6-6,9.9-12.4,9.9c-1,0-2.6-0.2-4.6-0.6
		c-8.2-1.4-14.9-2.2-20.1-2.2c-14.8,0-26.8,3.4-35.8,10.2c-9.1,6.8-13.6,16-13.6,27.5v90.2c0,4.9-1.3,8.8-3.9,11.4
		c-2.6,2.7-6.4,4-11.6,4c-4.9,0-8.8-1.3-11.4-3.9c-2.7-2.6-4-6.4-4-11.6v-138c0-4.9,1.3-8.8,4-11.4c2.7-2.7,6.5-4,11.4-4
		c10.3,0,15.4,5.1,15.4,15.4v5.9c6.2-7.2,13.8-12.9,22.9-17s18.7-6.2,29-6.2C1458.4,128.4,1467,130,1473.1,133.3z"/>
</g>
<path class="st0" d="M1,0.5v395h395V0.5H1z M326.2,325.7H70.6V70.1h255.6V325.7z"/>
</svg>
